<svg xmlns="http://www.w3.org/2000/svg" viewBox="0 0 48 48" width="48" height="48">
  <path fill="#2196F3" d="M37,45H11c-1.657,0-3-1.343-3-3V6c0-1.657,1.343-3,3-3h17l12,12v27C40,43.657,38.657,45,37,45z"/>
  <path fill="#BBDEFB" d="M40,15H28V3L40,15z"/>
  <path fill="none" stroke="#1565C0" stroke-width="0" d="M14 20h20M14 25h20M14 30h16"/>
  <rect fill="#E3F2FD" x="14" y="19" width="20" height="1.5" rx="0.75"/>
  <rect fill="#E3F2FD" x="14" y="24" width="20" height="1.5" rx="0.75"/>
  <rect fill="#E3F2FD" x="14" y="29" width="16" height="1.5" rx="0.75"/>
  <rect fill="#E3F2FD" x="14" y="34" width="18" height="1.5" rx="0.75"/>
</svg>
